<?xml version="1.0" standalone="no"?>
<!DOCTYPE svg PUBLIC "-//W3C//DTD SVG 20010904//EN"
 "http://www.w3.org/TR/2001/REC-SVG-20010904/DTD/svg10.dtd">
<svg version="1.0" xmlns="http://www.w3.org/2000/svg"
 width="2084.000000pt" height="2084.000000pt" viewBox="0 0 2084.000000 2084.000000"
 preserveAspectRatio="xMidYMid meet">
<metadata>
Created by potrace 1.11, written by Peter Selinger 2001-2013
</metadata>
<g transform="translate(0.000000,2084.000000) scale(0.100000,-0.100000)"
fill="#000000" stroke="none">
<path d="M12108 18394 c-2 -1 -64 -5 -138 -8 -133 -6 -197 -11 -295 -21 -27
-3 -72 -7 -100 -10 -82 -7 -148 -14 -185 -19 -240 -35 -414 -64 -555 -92 -93
-19 -181 -37 -195 -40 -53 -10 -341 -85 -460 -120 -69 -20 -138 -40 -155 -44
-167 -47 -625 -219 -803 -301 -35 -16 -65 -29 -67 -29 -8 0 -172 -78 -340
-162 -145 -72 -420 -223 -530 -291 -427 -263 -798 -534 -1125 -820 -313 -275
-694 -665 -900 -923 -8 -10 -39 -48 -68 -84 -67 -81 -71 -86 -107 -135 -17
-22 -34 -45 -40 -51 -5 -7 -18 -22 -27 -35 -9 -13 -38 -54 -65 -90 -85 -116
-96 -132 -190 -274 -51 -77 -97 -144 -101 -150 -14 -18 -138 -228 -217 -365
-42 -74 -125 -232 -184 -350 -105 -211 -130 -265 -198 -425 -18 -44 -38 -89
-43 -100 -5 -11 -28 -69 -51 -130 -24 -60 -44 -112 -45 -114 -2 -1 -60 19
-131 47 -284 111 -548 179 -798 206 -105 11 -92 -17 68 -145 56 -45 109 -89
118 -98 22 -21 31 -28 190 -148 216 -163 300 -257 285 -318 -8 -33 -79 -56
-216 -71 -63 -7 -94 -29 -85 -62 9 -37 38 -74 91 -118 39 -33 73 -55 203 -132
12 -7 11 -21 -7 -93 -18 -68 -42 -185 -87 -409 -1 -8 -6 -35 -10 -60 -4 -25
-9 -54 -11 -65 -7 -33 -23 -137 -29 -185 -14 -101 -16 -114 -19 -118 -2 -2
-68 33 -145 77 -175 101 -392 215 -491 259 -116 51 -358 144 -410 157 -3 1
-12 4 -20 7 -244 94 -874 251 -1240 309 -36 5 -78 12 -95 15 -119 20 -163 25
-340 44 -55 6 -113 12 -130 15 -52 7 -335 19 -455 19 -121 -1 -379 -12 -389
-18 -3 -2 -31 -7 -61 -10 -238 -28 -480 -103 -636 -199 l-69 -42 -3 -68 -3
-67 33 5 c18 2 85 12 148 21 544 77 784 43 939 -132 72 -82 89 -150 52 -210
-21 -35 -90 -66 -171 -78 -100 -15 -101 -16 -98 -44 4 -34 10 -36 511 -141
700 -148 1004 -236 1282 -372 213 -103 345 -207 427 -333 59 -91 72 -148 72
-306 -1 -199 -37 -314 -124 -400 -75 -73 -191 -101 -326 -80 -70 11 -271 74
-289 91 -16 15 -51 10 -79 -12 -35 -27 -34 -71 1 -118 127 -167 418 -360 773
-510 69 -30 144 -62 168 -73 68 -30 474 -163 617 -202 72 -20 162 -45 200 -56
39 -11 79 -21 90 -23 69 -12 113 -32 147 -68 92 -96 28 -175 -199 -247 -104
-33 -117 -40 -130 -68 -13 -27 -13 -34 0 -60 12 -23 34 -37 99 -63 99 -41 216
-105 253 -138 37 -35 30 -63 -25 -92 -56 -29 -435 -255 -513 -305 -81 -52 -95
-99 -45 -146 21 -19 54 -20 148 -5 14 2 54 6 90 10 36 3 81 8 100 10 38 4 117
11 255 21 118 9 392 12 428 4 25 -4 32 -14 52 -70 13 -36 37 -103 55 -150 17
-47 34 -92 37 -101 2 -9 -16 -42 -47 -79 -42 -53 -50 -69 -46 -94 3 -17 16
-40 30 -51 14 -11 40 -31 57 -44 46 -36 61 -77 43 -119 -17 -41 -32 -54 -289
-245 -78 -59 -269 -222 -340 -293 -172 -169 -278 -307 -365 -478 -90 -177
-100 -231 -48 -269 37 -28 63 -18 138 54 301 285 541 408 786 404 147 -3 165
-23 129 -146 -31 -108 -98 -296 -169 -477 -45 -114 -55 -147 -45 -158 17 -20
20 -19 74 33 287 273 535 461 741 566 l51 26 79 -117 c89 -134 175 -253 283
-397 l75 -100 1 -142 c0 -131 2 -144 21 -163 11 -12 35 -23 52 -26 33 -5 55
10 97 69 l20 28 64 -73 c34 -40 93 -106 129 -146 59 -65 67 -79 68 -114 0 -49
32 -81 75 -76 23 2 43 -12 119 -87 50 -49 95 -96 99 -104 23 -47 0 -197 -42
-270 -28 -49 -94 -132 -117 -148 -21 -15 -26 -38 -11 -48 6 -3 49 11 98 31
145 60 240 82 276 62 20 -11 20 -4 1 -198 -9 -96 -14 -243 -14 -440 0 -256 3
-279 46 -298 37 -17 55 -15 96 13 45 31 67 31 97 3 55 -51 103 -208 167 -546
7 -38 37 -62 76 -62 34 0 50 16 88 92 58 114 109 159 161 143 12 -4 146 -130
297 -279 150 -149 279 -274 285 -278 23 -14 56 -8 84 16 l28 24 -18 98 c-39
216 -78 442 -87 504 -20 127 -50 356 -57 419 l-6 64 31 -21 c16 -12 32 -22 35
-22 3 0 34 -17 68 -38 143 -86 497 -267 699 -357 343 -152 725 -292 1055 -385
61 -17 133 -37 160 -45 28 -8 118 -31 201 -50 148 -33 176 -39 232 -50 15 -3
104 -22 197 -41 235 -48 303 -61 355 -69 25 -4 54 -9 65 -11 11 -3 38 -7 60
-9 22 -3 57 -8 78 -10 88 -12 115 -15 175 -20 34 -3 90 -8 124 -11 151 -14
730 -20 828 -10 19 3 82 7 140 11 58 3 116 8 130 10 14 1 60 6 102 9 42 4 85
8 95 10 10 2 45 7 78 10 33 4 71 9 85 11 14 2 88 13 165 25 77 11 178 27 225
35 47 8 99 17 115 20 37 6 96 17 110 21 6 1 25 5 43 8 171 32 484 109 697 171
781 228 1886 743 2195 1024 19 17 71 57 115 88 162 115 371 274 479 363 523
435 948 878 1337 1395 152 201 347 492 463 690 26 44 53 89 59 100 7 10 21 35
33 55 97 165 364 704 364 734 0 7 4 16 9 22 8 8 128 292 135 319 2 6 8 23 14
38 54 131 202 590 247 767 9 35 66 271 70 287 12 53 64 312 69 338 2 17 14 86
25 155 11 69 23 145 26 170 3 25 8 56 10 70 2 14 6 50 10 80 3 30 8 71 10 90
2 19 7 67 11 105 3 39 7 86 9 105 15 162 20 330 20 665 -1 347 -5 493 -20 645
-3 25 -7 73 -10 107 -3 34 -7 77 -9 95 -2 18 -7 58 -11 88 -9 81 -14 117 -25
195 -6 39 -13 86 -16 105 -5 38 -31 189 -39 230 -3 14 -8 41 -11 60 -3 19 -20
96 -36 170 -16 74 -31 143 -33 153 -2 10 -7 27 -10 37 -3 10 -8 27 -10 37 -5
29 -43 166 -86 318 -236 822 -671 1711 -1179 2408 -33 45 -68 93 -77 106 -25
33 -194 250 -220 281 -448 536 -869 941 -1374 1319 -74 56 -138 104 -144 109
-24 19 -215 151 -267 185 -141 91 -171 110 -313 195 -189 113 -237 139 -465
255 -155 80 -240 120 -435 207 -316 141 -844 323 -1173 405 -34 8 -88 22 -120
30 -33 8 -71 16 -86 19 -14 3 -34 7 -44 10 -9 3 -29 8 -44 11 -69 13 -85 16
-118 25 -19 4 -57 12 -85 16 -27 4 -54 8 -60 10 -13 3 -60 11 -105 19 -19 3
-42 8 -50 10 -8 2 -39 7 -69 10 -30 4 -62 8 -71 10 -9 2 -41 6 -71 10 -30 3
-61 8 -69 10 -8 2 -44 6 -80 10 -36 3 -81 8 -100 10 -19 3 -64 7 -100 10 -36
2 -96 7 -135 10 -38 4 -101 9 -140 11 -74 5 -743 12 -747 8z"/>
</g>
</svg>
